<?xml version="1.0" encoding="UTF-8" standalone="no"?>
<!-- Created with Inkscape (http://www.inkscape.org/) -->

<svg
   xmlns:dc="http://purl.org/dc/elements/1.1/"
   xmlns:cc="http://creativecommons.org/ns#"
   xmlns:rdf="http://www.w3.org/1999/02/22-rdf-syntax-ns#"
   xmlns:svg="http://www.w3.org/2000/svg"
   xmlns="http://www.w3.org/2000/svg"
   xmlns:xlink="http://www.w3.org/1999/xlink"
   xmlns:sodipodi="http://sodipodi.sourceforge.net/DTD/sodipodi-0.dtd"
   xmlns:inkscape="http://www.inkscape.org/namespaces/inkscape"
   width="24"
   height="24"
   id="svg2"
   version="1.1"
   inkscape:version="0.48.0 r9654"
   sodipodi:docname="camera.svg"
   inkscape:export-filename="C:\Users\Yann\Documents\RAD Studio\Projets\BGA\misc\cube.png"
   inkscape:export-xdpi="90"
   inkscape:export-ydpi="90">
  <defs
     id="defs4">
    <linearGradient
       inkscape:collect="always"
       id="linearGradient4617">
      <stop
         style="stop-color:#ffffff;stop-opacity:1;"
         offset="0"
         id="stop4619" />
      <stop
         style="stop-color:#ffffff;stop-opacity:0;"
         offset="1"
         id="stop4621" />
    </linearGradient>
    <linearGradient
       id="linearGradient4035">
      <stop
         style="stop-color:#ffffff;stop-opacity:1;"
         offset="0"
         id="stop4037" />
      <stop
         style="stop-color:#006ef3;stop-opacity:0;"
         offset="1"
         id="stop4039" />
    </linearGradient>
    <linearGradient
       id="linearGradient3936">
      <stop
         style="stop-color:#05b72c;stop-opacity:1;"
         offset="0"
         id="stop3938" />
      <stop
         style="stop-color:#07f63b;stop-opacity:1;"
         offset="1"
         id="stop3940" />
    </linearGradient>
    <linearGradient
       id="linearGradient3875">
      <stop
         style="stop-color:#6a6a6a;stop-opacity:1;"
         offset="0"
         id="stop3877" />
      <stop
         style="stop-color:#a1a1a1;stop-opacity:1;"
         offset="1"
         id="stop3879" />
    </linearGradient>
    <linearGradient
       id="linearGradient4091">
      <stop
         style="stop-color:#2c2c9c;stop-opacity:1;"
         offset="0"
         id="stop4093" />
      <stop
         style="stop-color:#393997;stop-opacity:1;"
         offset="1"
         id="stop4095" />
    </linearGradient>
    <linearGradient
       id="linearGradient4054">
      <stop
         id="stop4056"
         offset="0"
         style="stop-color:#3b3bff;stop-opacity:1;" />
      <stop
         id="stop4058"
         offset="1"
         style="stop-color:#00006a;stop-opacity:1;" />
    </linearGradient>
    <linearGradient
       id="linearGradient4028">
      <stop
         id="stop4032"
         offset="0"
         style="stop-color:#0606ff;stop-opacity:1;" />
      <stop
         id="stop4030"
         offset="1"
         style="stop-color:#0606ff;stop-opacity:1;" />
    </linearGradient>
    <linearGradient
       id="linearGradient4006">
      <stop
         style="stop-color:#0606ff;stop-opacity:1;"
         offset="0"
         id="stop4010" />
      <stop
         style="stop-color:#0000f1;stop-opacity:1;"
         offset="1"
         id="stop4008" />
    </linearGradient>
    <linearGradient
       id="linearGradient3850">
      <stop
         style="stop-color:#ead373;stop-opacity:0.37599999;"
         offset="0"
         id="stop3852" />
      <stop
         style="stop-color:#d1af1f;stop-opacity:1;"
         offset="1"
         id="stop3854" />
    </linearGradient>
    <linearGradient
       id="linearGradient3842">
      <stop
         style="stop-color:#8a903c;stop-opacity:0.616;"
         offset="0"
         id="stop3844" />
      <stop
         style="stop-color:#5e6229;stop-opacity:1;"
         offset="1"
         id="stop3846" />
    </linearGradient>
    <linearGradient
       id="linearGradient3832">
      <stop
         style="stop-color:#ffffff;stop-opacity:1;"
         offset="0"
         id="stop3834" />
      <stop
         id="stop3840"
         offset="0.5"
         style="stop-color:#fbec59;stop-opacity:0.84705882;" />
      <stop
         style="stop-color:#fbe34b;stop-opacity:0.69599998;"
         offset="1"
         id="stop3836" />
    </linearGradient>
    <linearGradient
       id="linearGradient3740">
      <stop
         style="stop-color:#b00be6;stop-opacity:1;"
         offset="0"
         id="stop3742" />
      <stop
         style="stop-color:#020103;stop-opacity:1;"
         offset="1"
         id="stop3744" />
    </linearGradient>
    <radialGradient
       inkscape:collect="always"
       xlink:href="#linearGradient3740"
       id="radialGradient3746"
       cx="15"
       cy="7"
       fx="15"
       fy="7"
       r="1.5"
       gradientUnits="userSpaceOnUse" />
    <radialGradient
       inkscape:collect="always"
       xlink:href="#linearGradient3740"
       id="radialGradient3750"
       gradientUnits="userSpaceOnUse"
       cx="15"
       cy="7"
       fx="15"
       fy="7"
       r="1.5" />
    <radialGradient
       inkscape:collect="always"
       xlink:href="#linearGradient3740"
       id="radialGradient3758"
       gradientUnits="userSpaceOnUse"
       cx="15"
       cy="7"
       fx="15"
       fy="7"
       r="1.5" />
    <radialGradient
       inkscape:collect="always"
       xlink:href="#linearGradient3740"
       id="radialGradient3762"
       gradientUnits="userSpaceOnUse"
       cx="15"
       cy="7"
       fx="15"
       fy="7"
       r="1.5" />
    <radialGradient
       inkscape:collect="always"
       xlink:href="#linearGradient3740"
       id="radialGradient3774"
       gradientUnits="userSpaceOnUse"
       cx="15"
       cy="7"
       fx="15"
       fy="7"
       r="1.5" />
    <radialGradient
       inkscape:collect="always"
       xlink:href="#linearGradient3740"
       id="radialGradient3782"
       gradientUnits="userSpaceOnUse"
       cx="15"
       cy="7"
       fx="15"
       fy="7"
       r="1.5" />
    <radialGradient
       inkscape:collect="always"
       xlink:href="#linearGradient3740"
       id="radialGradient3790"
       gradientUnits="userSpaceOnUse"
       cx="15"
       cy="7"
       fx="15"
       fy="7"
       r="1.5" />
    <radialGradient
       inkscape:collect="always"
       xlink:href="#linearGradient3740"
       id="radialGradient3798"
       gradientUnits="userSpaceOnUse"
       cx="15"
       cy="7"
       fx="15"
       fy="7"
       r="1.5" />
    <radialGradient
       inkscape:collect="always"
       xlink:href="#linearGradient3740"
       id="radialGradient3804"
       gradientUnits="userSpaceOnUse"
       cx="15"
       cy="7"
       fx="15"
       fy="7"
       r="1.5" />
    <radialGradient
       inkscape:collect="always"
       xlink:href="#linearGradient3740"
       id="radialGradient3808"
       gradientUnits="userSpaceOnUse"
       cx="15"
       cy="7"
       fx="15"
       fy="7"
       r="1.5" />
    <radialGradient
       inkscape:collect="always"
       xlink:href="#linearGradient3740"
       id="radialGradient3820"
       gradientUnits="userSpaceOnUse"
       cx="15"
       cy="7"
       fx="15"
       fy="7"
       r="1.5" />
    <radialGradient
       inkscape:collect="always"
       xlink:href="#linearGradient3740"
       id="radialGradient3826"
       gradientUnits="userSpaceOnUse"
       cx="15"
       cy="7"
       fx="15"
       fy="7"
       r="1.5" />
    <linearGradient
       inkscape:collect="always"
       xlink:href="#linearGradient3832"
       id="linearGradient3838"
       x1="0.5"
       y1="1041.8622"
       x2="15.5"
       y2="1041.8622"
       gradientUnits="userSpaceOnUse"
       gradientTransform="translate(-4.3631348,-40.8475)" />
    <linearGradient
       inkscape:collect="always"
       xlink:href="#linearGradient3842"
       id="linearGradient3848"
       x1="14.5"
       y1="1041.3622"
       x2="23.5"
       y2="1041.3622"
       gradientUnits="userSpaceOnUse"
       gradientTransform="translate(-4.3631348,-40.8475)" />
    <linearGradient
       inkscape:collect="always"
       xlink:href="#linearGradient3850"
       id="linearGradient3856"
       x1="0.5"
       y1="1032.4961"
       x2="23.5"
       y2="1032.4961"
       gradientUnits="userSpaceOnUse"
       gradientTransform="translate(-4.3631348,-40.8475)" />
    <linearGradient
       id="linearGradient4091-4">
      <stop
         style="stop-color:#2c2c9c;stop-opacity:1;"
         offset="0"
         id="stop4093-0" />
      <stop
         style="stop-color:#000029;stop-opacity:1;"
         offset="1"
         id="stop4095-9" />
    </linearGradient>
    <linearGradient
       y2="1034.1682"
       x2="124.72308"
       y1="1029.5782"
       x1="117.34296"
       gradientTransform="translate(-114.13171,-1029.3506)"
       gradientUnits="userSpaceOnUse"
       id="linearGradient4112"
       xlink:href="#linearGradient4091-4"
       inkscape:collect="always" />
    <radialGradient
       inkscape:collect="always"
       xlink:href="#linearGradient3740"
       id="radialGradient3895"
       gradientUnits="userSpaceOnUse"
       cx="15"
       cy="7"
       fx="15"
       fy="7"
       r="1.5" />
    <linearGradient
       inkscape:collect="always"
       xlink:href="#linearGradient3875"
       id="linearGradient4057"
       gradientUnits="userSpaceOnUse"
       gradientTransform="matrix(0.4,0,0,0.85714528,21,1033.2194)"
       x1="-14"
       y1="4"
       x2="-21"
       y2="1" />
    <linearGradient
       inkscape:collect="always"
       xlink:href="#linearGradient3875"
       id="linearGradient4059"
       gradientUnits="userSpaceOnUse"
       gradientTransform="matrix(0.66666667,0,0,0.99999748,18.666667,1033.3623)"
       x1="-14"
       y1="4"
       x2="-21"
       y2="1" />
    <linearGradient
       inkscape:collect="always"
       xlink:href="#linearGradient3936"
       id="linearGradient4069"
       gradientUnits="userSpaceOnUse"
       gradientTransform="matrix(1,0,0,1.2,0,1023.7622)"
       x1="14"
       y1="23"
       x2="14"
       y2="17" />
    <radialGradient
       inkscape:collect="always"
       xlink:href="#linearGradient4035"
       id="radialGradient4475"
       gradientUnits="userSpaceOnUse"
       gradientTransform="translate(-48,-37.000727)"
       cx="12"
       cy="1040.3622"
       fx="12.176777"
       fy="1028.9601"
       r="12" />
    <filter
       inkscape:collect="always"
       id="filter4607">
      <feGaussianBlur
         inkscape:collect="always"
         stdDeviation="0.19936946"
         id="feGaussianBlur4609" />
    </filter>
    <linearGradient
       inkscape:collect="always"
       xlink:href="#linearGradient4617"
       id="linearGradient4833"
       gradientUnits="userSpaceOnUse"
       gradientTransform="matrix(0.85430464,0,0,1,18.621067,1041.9247)"
       x1="-15.65625"
       y1="-11.09375"
       x2="-15.625"
       y2="-6.875" />
  </defs>
  <sodipodi:namedview
     id="base"
     pagecolor="#ffffff"
     bordercolor="#666666"
     borderopacity="1.0"
     inkscape:pageopacity="0.0"
     inkscape:pageshadow="2"
     inkscape:zoom="8"
     inkscape:cx="8.3376404"
     inkscape:cy="27.343195"
     inkscape:document-units="px"
     inkscape:current-layer="layer1"
     showgrid="true"
     inkscape:snap-global="false"
     borderlayer="true"
     inkscape:window-width="1440"
     inkscape:window-height="838"
     inkscape:window-x="-8"
     inkscape:window-y="-8"
     inkscape:window-maximized="1"
     showguides="true"
     inkscape:guide-bbox="true"
     inkscape:snap-grids="true"
     inkscape:snap-bbox="true"
     inkscape:object-nodes="true"
     inkscape:snap-nodes="true"
     inkscape:bbox-nodes="true">
    <inkscape:grid
       type="axonomgrid"
       id="grid2955"
       units="mm"
       empspacing="5"
       visible="true"
       enabled="false"
       snapvisiblegridlinesonly="true"
       gridanglez="30" />
    <inkscape:grid
       type="xygrid"
       id="grid3733"
       empspacing="5"
       visible="true"
       enabled="true"
       snapvisiblegridlinesonly="true" />
  </sodipodi:namedview>
  <metadata
     id="metadata7">
    <rdf:RDF>
      <cc:Work
         rdf:about="">
        <dc:format>image/svg+xml</dc:format>
        <dc:type
           rdf:resource="http://purl.org/dc/dcmitype/StillImage" />
        <dc:title></dc:title>
      </cc:Work>
    </rdf:RDF>
  </metadata>
  <g
     inkscape:label="Calque 1"
     inkscape:groupmode="layer"
     id="layer1"
     transform="translate(0,-1028.3622)">
    <use
       x="0"
       y="0"
       xlink:href="#rect4033"
       id="use4471"
       transform="translate(48,36.999983)"
       width="24"
       height="24"
       inkscape:export-filename="cam-terrain.png"
       inkscape:export-xdpi="90"
       inkscape:export-ydpi="90" />
    <rect
       style="fill:url(#radialGradient4475);fill-opacity:1;stroke:none"
       id="rect4033"
       width="24"
       height="24.000017"
       x="-48"
       y="991.36218" />
    <g
       id="g3912"
       transform="translate(-4.3631348,-40.8475)">
      <path
         inkscape:connector-curvature="0"
         id="path3816"
         d="m 11,1035.7513 -8.9290982,2.779"
         style="fill:none;stroke:#9e4dd3;stroke-width:0.85802078px;stroke-linecap:butt;stroke-linejoin:miter;stroke-opacity:1"
         sodipodi:nodetypes="cc" />
      <path
         sodipodi:nodetypes="cc"
         style="fill:none;stroke:#9e4dd3;stroke-width:1px;stroke-linecap:butt;stroke-linejoin:miter;stroke-opacity:1"
         d="m 11,1035.7513 11.553571,2.4656"
         id="path3812"
         inkscape:connector-curvature="0" />
      <path
         transform="translate(0,1028.3622)"
         inkscape:connector-curvature="0"
         id="path2958"
         d="m 11,1 0,13 -9,3"
         style="fill:none;stroke:#9e4dd3;stroke-width:1px;stroke-linecap:butt;stroke-linejoin:miter;stroke-opacity:1" />
      <path
         transform="translate(0,1028.3622)"
         sodipodi:nodetypes="cc"
         inkscape:connector-curvature="0"
         id="path2960"
         d="m 11,14 10.768877,2.715895"
         style="fill:none;stroke:#9e4dd3;stroke-width:1px;stroke-linecap:butt;stroke-linejoin:miter;stroke-opacity:1" />
    </g>
    <path
       style="fill:url(#linearGradient3856);fill-opacity:1;stroke:#98086f;stroke-linejoin:round;stroke-opacity:1"
       d="m -3.3631348,991.5147 13.9999998,3 8,-4 -11.9776788,-1.7321 z"
       id="path2957"
       inkscape:connector-curvature="0"
       sodipodi:nodetypes="ccccc" />
    <path
       sodipodi:nodetypes="ccccc"
       inkscape:connector-curvature="0"
       id="path3729"
       d="m -3.3631348,991.5147 13.9999998,3 0,16 -12.9999998,-6 z"
       style="fill:url(#linearGradient3838);fill-opacity:1;stroke:#9200bb;stroke-linejoin:round;stroke-opacity:1" />
    <path
       sodipodi:nodetypes="ccccc"
       inkscape:connector-curvature="0"
       id="path3731"
       d="m 10.636865,1010.5147 0,-16 8,-4 -1,14 z"
       style="fill:url(#linearGradient3848);fill-opacity:1;stroke:#440049;stroke-linejoin:round;stroke-opacity:1" />
    <g
       id="g3918"
       transform="translate(-4.3631348,-40.8475)">
      <path
         sodipodi:nodetypes="cc"
         inkscape:connector-curvature="0"
         id="path3784"
         d="M 7.8405999,1033.7548 8.0214147,1048.52"
         style="fill:#71c459;fill-opacity:1;stroke:#8e3ba6;stroke-width:1px;stroke-linecap:butt;stroke-linejoin:miter;stroke-opacity:1" />
      <path
         sodipodi:nodetypes="cc"
         style="fill:#71c459;fill-opacity:1;stroke:#8e3ba6;stroke-width:1px;stroke-linecap:round;stroke-linejoin:miter;stroke-opacity:1"
         d="M 15,1043.6891 2,1038.8887"
         id="path3786"
         inkscape:connector-curvature="0" />
      <path
         inkscape:connector-curvature="0"
         id="path3810"
         d="m 15,1043.6891 7.508929,-5.3269"
         style="fill:#71c459;fill-opacity:1;stroke:#4f2f51;stroke-width:1px;stroke-linecap:round;stroke-linejoin:miter;stroke-opacity:1"
         sodipodi:nodetypes="cc" />
      <path
         style="fill:#71c459;fill-opacity:1;stroke:#98086f;stroke-width:1px;stroke-linecap:round;stroke-linejoin:miter;stroke-opacity:1"
         d="m 7.8067892,1033.8441 8.4852488,-3.4753"
         id="path3822"
         inkscape:connector-curvature="0"
         sodipodi:nodetypes="cc" />
    </g>
    <g
       id="g3862"
       transform="translate(-4.3631348,-40.8475)">
      <path
         transform="matrix(1.0332517,0,0,1.0332517,-0.96552318,1027.2682)"
         d="M 17,7.5 C 17,8.3284271 16.328427,9 15.5,9 14.671573,9 14,8.3284271 14,7.5 14,6.6715729 14.671573,6 15.5,6 16.328427,6 17,6.6715729 17,7.5 z"
         sodipodi:ry="1.5"
         sodipodi:rx="1.5"
         sodipodi:cy="7.5"
         sodipodi:cx="15.5"
         id="path3730"
         style="color:#000000;fill:url(#radialGradient3746);fill-opacity:1;fill-rule:nonzero;stroke:none;stroke-width:1;marker:none;visibility:visible;display:inline;overflow:visible;enable-background:accumulate"
         sodipodi:type="arc" />
      <path
         sodipodi:type="arc"
         style="color:#000000;fill:url(#radialGradient3750);fill-opacity:1;fill-rule:nonzero;stroke:none;stroke-width:1;marker:none;visibility:visible;display:inline;overflow:visible;enable-background:accumulate"
         id="path3748"
         sodipodi:cx="15.5"
         sodipodi:cy="7.5"
         sodipodi:rx="1.5"
         sodipodi:ry="1.5"
         d="M 17,7.5 C 17,8.3284271 16.328427,9 15.5,9 14.671573,9 14,8.3284271 14,7.5 14,6.6715729 14.671573,6 15.5,6 16.328427,6 17,6.6715729 17,7.5 z"
         transform="matrix(1.0332517,0,0,1.0332517,-0.96552318,1043.0629)" />
      <path
         sodipodi:type="arc"
         style="color:#000000;fill:url(#radialGradient3758);fill-opacity:1;fill-rule:nonzero;stroke:none;stroke-width:1;marker:none;visibility:visible;display:inline;overflow:visible;enable-background:accumulate"
         id="path3756"
         sodipodi:cx="15.5"
         sodipodi:cy="7.5"
         sodipodi:rx="1.5"
         sodipodi:ry="1.5"
         d="M 17,7.5 C 17,8.3284271 16.328427,9 15.5,9 14.671573,9 14,8.3284271 14,7.5 14,6.6715729 14.671573,6 15.5,6 16.328427,6 17,6.6715729 17,7.5 z"
         transform="matrix(0.8511905,0,0,0.8511905,9.5297615,1024.9783)" />
      <path
         transform="matrix(0.73933333,0,0,0.73933333,-0.49352389,1023.9716)"
         d="M 17,7.5 C 17,8.3284271 16.328427,9 15.5,9 14.671573,9 14,8.3284271 14,7.5 14,6.6715729 14.671573,6 15.5,6 16.328427,6 17,6.6715729 17,7.5 z"
         sodipodi:ry="1.5"
         sodipodi:rx="1.5"
         sodipodi:cy="7.5"
         sodipodi:cx="15.5"
         id="path3760"
         style="color:#000000;fill:url(#radialGradient3762);fill-opacity:1;fill-rule:nonzero;stroke:none;stroke-width:1;marker:none;visibility:visible;display:inline;overflow:visible;enable-background:accumulate"
         sodipodi:type="arc" />
      <path
         transform="matrix(0.8511905,0,0,0.8511905,8.8154758,1038.8444)"
         d="M 17,7.5 C 17,8.3284271 16.328427,9 15.5,9 14.671573,9 14,8.3284271 14,7.5 14,6.6715729 14.671573,6 15.5,6 16.328427,6 17,6.6715729 17,7.5 z"
         sodipodi:ry="1.5"
         sodipodi:rx="1.5"
         sodipodi:cy="7.5"
         sodipodi:cx="15.5"
         id="path3772"
         style="color:#000000;fill:url(#radialGradient3774);fill-opacity:1;fill-rule:nonzero;stroke:none;stroke-width:1;marker:none;visibility:visible;display:inline;overflow:visible;enable-background:accumulate"
         sodipodi:type="arc" />
      <path
         transform="matrix(0.8511905,0,0,0.8511905,-11.925596,1025.9024)"
         d="M 17,7.5 C 17,8.3284271 16.328427,9 15.5,9 14.671573,9 14,8.3284271 14,7.5 14,6.6715729 14.671573,6 15.5,6 16.328427,6 17,6.6715729 17,7.5 z"
         sodipodi:ry="1.5"
         sodipodi:rx="1.5"
         sodipodi:cy="7.5"
         sodipodi:cx="15.5"
         id="path3776"
         style="color:#000000;fill:url(#radialGradient3895);fill-opacity:1;fill-rule:nonzero;stroke:none;stroke-width:1;marker:none;visibility:visible;display:inline;overflow:visible;enable-background:accumulate"
         sodipodi:type="arc" />
      <path
         sodipodi:type="arc"
         style="color:#000000;fill:url(#radialGradient3782);fill-opacity:1;fill-rule:nonzero;stroke:none;stroke-width:1;marker:none;visibility:visible;display:inline;overflow:visible;enable-background:accumulate"
         id="path3780"
         sodipodi:cx="15.5"
         sodipodi:cy="7.5"
         sodipodi:rx="1.5"
         sodipodi:ry="1.5"
         d="M 17,7.5 C 17,8.3284271 16.328427,9 15.5,9 14.671573,9 14,8.3284271 14,7.5 14,6.6715729 14.671573,6 15.5,6 16.328427,6 17,6.6715729 17,7.5 z"
         transform="matrix(0.8511905,0,0,0.8511905,-11.296132,1038.8891)" />
      <path
         sodipodi:type="arc"
         style="color:#000000;fill:url(#radialGradient3790);fill-opacity:1;fill-rule:nonzero;stroke:none;stroke-width:1;marker:none;visibility:visible;display:inline;overflow:visible;enable-background:accumulate"
         id="path3788"
         sodipodi:cx="15.5"
         sodipodi:cy="7.5"
         sodipodi:rx="1.5"
         sodipodi:ry="1.5"
         d="M 17,7.5 C 17,8.3284271 16.328427,9 15.5,9 14.671573,9 14,8.3284271 14,7.5 14,6.6715729 14.671573,6 15.5,6 16.328427,6 17,6.6715729 17,7.5 z"
         transform="matrix(0.96666667,0,0,0.96666667,-7.1009543,1026.5283)" />
      <use
         height="24"
         width="24"
         transform="translate(0.25446446,6.5978749)"
         id="use3800"
         xlink:href="#path3776"
         y="0"
         x="0" />
      <path
         transform="matrix(0.93333333,0,0,0.93333333,-6.5035318,1041.2097)"
         d="M 17,7.5 C 17,8.3284271 16.328427,9 15.5,9 14.671573,9 14,8.3284271 14,7.5 14,6.6715729 14.671573,6 15.5,6 16.328427,6 17,6.6715729 17,7.5 z"
         sodipodi:ry="1.5"
         sodipodi:rx="1.5"
         sodipodi:cy="7.5"
         sodipodi:cx="15.5"
         id="path3802"
         style="color:#000000;fill:url(#radialGradient3804);fill-opacity:1;fill-rule:nonzero;stroke:none;stroke-width:1;marker:none;visibility:visible;display:inline;overflow:visible;enable-background:accumulate"
         sodipodi:type="arc" />
      <path
         transform="matrix(0.93333333,0,0,0.93333333,-6.5874012,1033.9625)"
         d="M 17,7.5 C 17,8.3284271 16.328427,9 15.5,9 14.671573,9 14,8.3284271 14,7.5 14,6.6715729 14.671573,6 15.5,6 16.328427,6 17,6.6715729 17,7.5 z"
         sodipodi:ry="1.5"
         sodipodi:rx="1.5"
         sodipodi:cy="7.5"
         sodipodi:cx="15.5"
         id="path3806"
         style="color:#000000;fill:url(#radialGradient3808);fill-opacity:1;fill-rule:nonzero;stroke:none;stroke-width:1;marker:none;visibility:visible;display:inline;overflow:visible;enable-background:accumulate"
         sodipodi:type="arc" />
      <path
         sodipodi:type="arc"
         style="color:#000000;fill:url(#radialGradient3798);fill-opacity:1;fill-rule:nonzero;stroke:none;stroke-width:1;marker:none;visibility:visible;display:inline;overflow:visible;enable-background:accumulate"
         id="path3796"
         sodipodi:cx="15.5"
         sodipodi:cy="7.5"
         sodipodi:rx="1.5"
         sodipodi:ry="1.5"
         d="M 17,7.5 C 17,8.3284271 16.328427,9 15.5,9 14.671573,9 14,8.3284271 14,7.5 14,6.6715729 14.671573,6 15.5,6 16.328427,6 17,6.6715729 17,7.5 z"
         transform="matrix(1.0332517,0,0,1.0332517,-0.96027814,1035.6293)" />
      <path
         transform="matrix(0.78466667,0,0,0.78466667,3.9282574,1024.3889)"
         d="M 17,7.5 C 17,8.3284271 16.328427,9 15.5,9 14.671573,9 14,8.3284271 14,7.5 14,6.6715729 14.671573,6 15.5,6 16.328427,6 17,6.6715729 17,7.5 z"
         sodipodi:ry="1.5"
         sodipodi:rx="1.5"
         sodipodi:cy="7.5"
         sodipodi:cx="15.5"
         id="path3818"
         style="color:#000000;fill:url(#radialGradient3820);fill-opacity:1;fill-rule:nonzero;stroke:none;stroke-width:1;marker:none;visibility:visible;display:inline;overflow:visible;enable-background:accumulate"
         sodipodi:type="arc" />
      <path
         sodipodi:type="arc"
         style="color:#000000;fill:url(#radialGradient3826);fill-opacity:1;fill-rule:nonzero;stroke:none;stroke-width:1;marker:none;visibility:visible;display:inline;overflow:visible;enable-background:accumulate"
         id="path3824"
         sodipodi:cx="15.5"
         sodipodi:cy="7.5"
         sodipodi:rx="1.5"
         sodipodi:ry="1.5"
         d="M 17,7.5 C 17,8.3284271 16.328427,9 15.5,9 14.671573,9 14,8.3284271 14,7.5 14,6.6715729 14.671573,6 15.5,6 16.328427,6 17,6.6715729 17,7.5 z"
         transform="matrix(0.8511905,0,0,0.8511905,9.2172615,1031.8355)" />
    </g>
    <rect
       y="1028.3622"
       x="120"
       height="24"
       width="24"
       id="rect4142"
       style="opacity:0.00100002;color:#000000;fill:#71c459;fill-opacity:1;fill-rule:nonzero;stroke:none;stroke-width:2;marker:none;visibility:visible;display:inline;overflow:visible;enable-background:accumulate"
       inkscape:export-filename="draw-textures.png"
       inkscape:export-xdpi="90"
       inkscape:export-ydpi="90" />
    <g
       id="g3913"
       transform="translate(-21,-15)">
      <path
         sodipodi:nodetypes="ccccc"
         inkscape:connector-curvature="0"
         id="rect3897"
         d="m 11,1034.3622 6,-2 0,6 -6,-2 z"
         style="fill:url(#linearGradient4057);fill-opacity:1;stroke:none" />
      <rect
         y="1032.3622"
         x="2"
         height="6.9999828"
         width="10"
         id="rect3105"
         style="fill:url(#linearGradient4059);fill-opacity:1;stroke:none" />
      <rect
         y="1031.3622"
         x="2"
         height="8.0000172"
         width="1"
         id="rect3883"
         style="fill:#262626;fill-opacity:1;stroke:none" />
      <rect
         style="fill:#262626;fill-opacity:1;stroke:none"
         id="rect3885"
         width="1.9999826"
         height="10"
         x="1037.3622"
         y="-12"
         transform="matrix(0,1,-1,0,0,0)" />
      <rect
         transform="matrix(0,1,-1,0,0,0)"
         y="-12"
         x="1032.3622"
         height="10"
         width="1"
         id="rect3889"
         style="fill:#262626;fill-opacity:1;stroke:none" />
      <rect
         y="1031.3622"
         x="10"
         height="8.0000172"
         width="2"
         id="rect3891"
         style="fill:#262626;fill-opacity:1;stroke:none" />
      <path
         sodipodi:nodetypes="ccccc"
         inkscape:connector-curvature="0"
         id="rect3887"
         d="m 12,1033.3622 5,-1 0,1 -5,1 z"
         style="fill:#000000;fill-opacity:1;stroke:none" />
      <rect
         style="fill:#000000;fill-opacity:1;stroke:none"
         id="rect3903"
         width="1"
         height="4.0000172"
         x="16"
         y="1033.3622" />
      <path
         style="fill:#000000;fill-opacity:1;stroke:none"
         d="m 12,1037.3622 5,1 0,-1 -5,-1 z"
         id="path3906"
         inkscape:connector-curvature="0"
         sodipodi:nodetypes="ccccc" />
      <rect
         style="fill:#262626;fill-opacity:1;stroke:none"
         id="rect3909"
         width="1"
         height="2"
         x="1031.3622"
         y="-5"
         transform="matrix(0,1,-1,0,0,0)" />
      <rect
         transform="matrix(0,1,-1,0,0,0)"
         y="-10"
         x="1031.3622"
         height="2"
         width="1"
         id="rect3911"
         style="fill:#262626;fill-opacity:1;stroke:none" />
      <rect
         style="fill:url(#linearGradient4833);fill-opacity:1;stroke:none"
         id="rect4615"
         width="8.0625"
         height="5.5"
         x="2.65625"
         y="1031.3622" />
    </g>
    <g
       id="g4061"
       transform="translate(-39,-11)"
       style="stroke-width:0.4;stroke-miterlimit:4;stroke-dasharray:none">
      <path
         sodipodi:nodetypes="ccccccc"
         inkscape:connector-curvature="0"
         id="path3934"
         d="m 4,1046.5622 c 5.1312681,3.0154 11.657695,-1.8491 14,-1.2 1.01527,-3.6782 2.462501,-5.17 5,-7.2 l 0,13.2 -22,0 0,-8.4 c 1.8020102,0.7143 2.2008346,1.682 3,3.6 z"
         style="fill:url(#linearGradient4069);fill-opacity:1;stroke:#782c19;stroke-width:0.4;stroke-linecap:butt;stroke-linejoin:miter;stroke-opacity:0.60795456000000003;stroke-miterlimit:4;stroke-dasharray:none" />
      <rect
         y="1049.3622"
         x="1"
         height="1.9999826"
         width="22"
         id="rect4045"
         style="fill:#7c6437;fill-opacity:1;stroke:none;stroke-width:0.4;stroke-miterlimit:4;stroke-dasharray:none" />
      <path
         style="fill:none;stroke:#ffffff;stroke-width:0.98997667;stroke-linecap:butt;stroke-linejoin:miter;stroke-miterlimit:4;stroke-opacity:0.83522728000000002;stroke-dasharray:none;filter:url(#filter4607)"
         d="m 3.311142,1046.5968 c 5.132139,2.9163 11.659674,-1.7883 14.002376,-1.1605 1.015443,-3.5574 2.46292,-5.0002 5.000849,-6.9635 l 0,12.7663 -22.0037341,0 0,-8.124 c 1.802316,0.6908 2.2012081,1.6267 3.0005091,3.4817 z"
         id="path4601"
         inkscape:connector-curvature="0"
         sodipodi:nodetypes="ccccccc"
         transform="matrix(1.0482912,0,0,0.99881954,-0.04629427,2.233408)" />
    </g>
    <rect
       style="fill:#000000;fill-opacity:1;stroke:none"
       id="rect4047"
       width="24"
       height="1"
       x="30"
       y="-2"
       transform="translate(0,1028.3622)" />
    <rect
       transform="matrix(0,1,-1,0,0,0)"
       y="-29"
       x="1027.3622"
       height="1"
       width="26.000017"
       id="rect4049"
       style="fill:#000000;fill-opacity:1;stroke:none" />
    <rect
       style="fill:#000000;fill-opacity:1;stroke:none"
       id="rect4051"
       width="26"
       height="1"
       x="1027.3622"
       y="-56"
       transform="matrix(0,1,-1,0,0,0)" />
    <rect
       y="1053.3622"
       x="30"
       height="1"
       width="24"
       id="rect4053"
       style="fill:#000000;fill-opacity:1;stroke:none" />
    <use
       x="0"
       y="0"
       xlink:href="#g3913"
       id="use4055"
       transform="matrix(0.85714285,0,0,0.85714285,20.428571,166.33746)"
       width="24"
       height="24" />
    <use
       x="0"
       y="0"
       xlink:href="#g4061"
       id="use4065"
       transform="translate(39,11)"
       width="24"
       height="24" />
    <use
       x="0"
       y="0"
       xlink:href="#rect4033"
       id="use4075"
       transform="translate(78,37)"
       width="24"
       height="24"
       inkscape:export-filename="cam-fly.png"
       inkscape:export-xdpi="90"
       inkscape:export-ydpi="90" />
    <use
       height="24"
       width="24"
       transform="translate(69,11.000035)"
       id="use4077"
       xlink:href="#g4061"
       y="0"
       x="0" />
    <use
       height="24"
       width="24"
       transform="matrix(0.7948072,0.60686201,-0.60686201,0.7948072,668.56027,232.2344)"
       id="use4079"
       xlink:href="#g3913"
       y="0"
       x="0" />
    <rect
       y="1026.3622"
       x="60"
       height="1"
       width="24"
       id="rect4445"
       style="fill:#000000;fill-opacity:1;stroke:none" />
    <rect
       style="fill:#000000;fill-opacity:1;stroke:none"
       id="rect4447"
       width="26.000017"
       height="1"
       x="1027.3622"
       y="-59"
       transform="matrix(0,1,-1,0,0,0)" />
    <rect
       transform="matrix(0,1,-1,0,0,0)"
       y="-86"
       x="1027.3622"
       height="1"
       width="26"
       id="rect4449"
       style="fill:#000000;fill-opacity:1;stroke:none" />
    <rect
       style="fill:#000000;fill-opacity:1;stroke:none"
       id="rect4451"
       width="24"
       height="1"
       x="60"
       y="1053.3622" />
    <use
       height="24"
       width="24"
       transform="translate(108,37)"
       id="use4453"
       xlink:href="#rect4033"
       y="0"
       x="0"
       inkscape:export-filename="cam-top.png"
       inkscape:export-xdpi="90"
       inkscape:export-ydpi="90" />
    <use
       x="0"
       y="0"
       xlink:href="#g4061"
       id="use4455"
       transform="translate(99,11.000035)"
       width="24"
       height="24" />
    <use
       x="0"
       y="0"
       xlink:href="#g3913"
       id="use4457"
       transform="matrix(-0.00115368,0.86674855,-0.86674855,-0.00115368,955.90853,1047.003)"
       width="24"
       height="24" />
  </g>
</svg>
